<svg xmlns="http://www.w3.org/2000/svg" width="41.672" height="41.432" viewBox="0 0 41.672 41.432"><g transform="translate(-728.005 -5596.525)"><path d="M190.106,1083.439a20.836,20.836,0,1,0,20.836-20.717,20.776,20.776,0,0,0-20.836,20.717" transform="translate(537.899 4533.804)" fill="#F7F7F7;" fill-rule="evenodd"/><path d="M7.369,15.808V1.682L.958,8.094A.561.561,0,0,1,.164,7.3L7.3.165a.56.56,0,0,1,.66-.1.561.561,0,0,1,.6.127L15.7,7.329a.561.561,0,0,1-.793.794L8.491,1.711v14.1a.561.561,0,0,1-1.121,0Z" transform="translate(757.025 5609.312) rotate(90)" fill="#e6f4d1"/></g></svg>